HIERARCHY
ROOT Hips
{
	OFFSET 0.000000 0.000000 0.000000
	CHANNELS 6 Xposition Yposition Zposition Zrotation Yrotation Xrotation 
	JOINT LHipJoint
	{
		OFFSET 0.000000 0.000000 0.000000
		CHANNELS 3 Zrotation Yrotation Xrotation
		JOINT LeftUpLeg
		{
			OFFSET 1.363060 -1.794630 0.839290
			CHANNELS 3 Zrotation Yrotation Xrotation
			JOINT LeftLeg
			{
				OFFSET 2.448110 -6.726130 0.000000
				CHANNELS 3 Zrotation Yrotation Xrotation
				JOINT LeftFoot
				{
					OFFSET 2.562200 -7.039590 0.000000
					CHANNELS 3 Zrotation Yrotation Xrotation
					JOINT LeftToeBase
					{
						OFFSET 0.157640 -0.433110 2.322550
						CHANNELS 3 Zrotation Yrotation Xrotation
						End Site
						{
							OFFSET 0.000000 0.000000 0.000000
						}
					}
				}
			}
		}
	}
	JOINT RHipJoint
	{
		OFFSET 0.000000 0.000000 0.000000
		CHANNELS 3 Zrotation Yrotation Xrotation
		JOINT RightUpLeg
		{
			OFFSET -1.305520 -1.794630 0.839290
			CHANNELS 3 Zrotation Yrotation Xrotation
			JOINT RightLeg
			{
				OFFSET -2.542530 -6.985550 0.000000
				CHANNELS 3 Zrotation Yrotation Xrotation
				JOINT RightFoot
				{
					OFFSET -2.568260 -7.056230 0.000000
					CHANNELS 3 Zrotation Yrotation Xrotation
					JOINT RightToeBase
					{
						OFFSET -0.164730 -0.452590 2.363150
						CHANNELS 3 Zrotation Yrotation Xrotation
						End Site
						{
							OFFSET 0.000000 0.000000 0.000000
						}
					}
				}
			}
		}
	}
	JOINT LowerBack
	{
		OFFSET 0.000000 0.000000 0.000000
		CHANNELS 3 Zrotation Yrotation Xrotation
		JOINT Spine
		{
			OFFSET 0.028270 2.035590 -0.193380
			CHANNELS 3 Zrotation Yrotation Xrotation
			JOINT Spine1
			{
				OFFSET 0.056720 2.048850 -0.042750
				CHANNELS 3 Zrotation Yrotation Xrotation
				JOINT Neck
				{
					OFFSET 0.000000 0.000000 0.000000
					CHANNELS 3 Zrotation Yrotation Xrotation
					JOINT Neck1
					{
						OFFSET -0.054170 1.746240 0.172020
						CHANNELS 3 Zrotation Yrotation Xrotation
						JOINT Head
						{
							OFFSET 0.104070 1.761360 -0.123970
							CHANNELS 3 Zrotation Yrotation Xrotation
							End Site
							{
								OFFSET 0.000000 0.000000 0.000000
							}
						}
					}
				}
				JOINT LeftShoulder
				{
					OFFSET 0.000000 0.000000 0.000000
					CHANNELS 3 Zrotation Yrotation Xrotation
					JOINT LeftArm
					{
						OFFSET 3.362410 1.200890 -0.311210
						CHANNELS 3 Zrotation Yrotation Xrotation
						JOINT LeftForeArm
						{
							OFFSET 4.983000 -0.000000 -0.000000
							CHANNELS 3 Zrotation Yrotation Xrotation
							JOINT LeftHand
							{
								OFFSET 3.483560 -0.000000 -0.000000
								CHANNELS 3 Zrotation Yrotation Xrotation
								JOINT LeftFingerBase
								{
									OFFSET 0.000000 0.000000 0.000000
									CHANNELS 3 Zrotation Yrotation Xrotation
									JOINT LeftHandIndex1
									{
										OFFSET 0.715260 -0.000000 -0.000000
										CHANNELS 3 Zrotation Yrotation Xrotation
										End Site
										{
											OFFSET 0.000000 0.000000 0.000000
										}
									}
								}
								JOINT LThumb
								{
									OFFSET 0.000000 0.000000 0.000000
									CHANNELS 3 Zrotation Yrotation Xrotation
									End Site
									{
										OFFSET 0.000000 0.000000 0.000000
									}
								}
							}
						}
					}
				}
				JOINT RightShoulder
				{
					OFFSET 0.000000 0.000000 0.000000
					CHANNELS 3 Zrotation Yrotation Xrotation
					JOINT RightArm
					{
						OFFSET -3.136600 1.374050 -0.404650
						CHANNELS 3 Zrotation Yrotation Xrotation
						JOINT RightForeArm
						{
							OFFSET -5.241900 -0.000000 -0.000000
							CHANNELS 3 Zrotation Yrotation Xrotation
							JOINT RightHand
							{
								OFFSET -3.444170 -0.000000 -0.000000
								CHANNELS 3 Zrotation Yrotation Xrotation
								JOINT RightFingerBase
								{
									OFFSET 0.000000 0.000000 0.000000
									CHANNELS 3 Zrotation Yrotation Xrotation
									JOINT RightHandIndex1
									{
										OFFSET -0.622530 -0.000000 -0.000000
										CHANNELS 3 Zrotation Yrotation Xrotation
										End Site
										{
											OFFSET 0.000000 0.000000 0.000000
										}
									}
								}
								JOINT RThumb
								{
									OFFSET 0.000000 0.000000 0.000000
									CHANNELS 3 Zrotation Yrotation Xrotation
									End Site
									{
										OFFSET 0.000000 0.000000 0.000000
									}
								}
							}
						}
					}
				}
			}
		}
	}
}
MOTION
Frames: 9
Frame Time: 0.008333
9.285517 17.875684 47.051918 -178.133699 -0.934144 -178.617091 -0.711681 3.658363 1.413922 -15.683880 -28.408003 -0.191541 -2.335476 8.313673 24.042192 -3.363083 11.892456 -9.681596 0.516300 -4.605400 -12.786300 -3.310498 -3.418564 0.988239 28.986919 14.903536 -1.122813 1.767782 -9.071219 28.705287 0.406707 -16.286667 -35.226382 -3.993200 -12.151300 36.269500 2.892497 0.294748 5.742255 2.864799 0.578270 0.677045 -4.216643 0.042654 -12.240770 -5.512987 -0.356419 -18.161335 10.778174 -0.640212 6.087082 1.242900 -0.208100 3.208000 -1.649635 -9.861160 2.078993 -89.975418 26.625417 26.586454 23.262319 -22.072524 -5.750763 2.150324 -0.738264 17.357426 -19.087214 -19.033523 7.151100 -7.125000 0.000000 0.000000 -30.495400 11.446100 28.316200 0.267891 9.713221 3.147832 81.018305 -22.861807 35.607083 -20.742155 23.086474 -5.756461 1.277648 -0.030822 13.582189 -9.879751 -50.445460 8.632400 7.125000 0.000000 0.000000 58.243500 -74.448300 -43.738700 
9.274935 17.818189 47.065087 -177.905768 -0.834356 -178.663888 -0.569896 3.482745 1.369029 -15.423162 -27.502047 -1.437342 -2.003686 8.849548 25.555303 -2.998618 11.144321 -9.885315 0.800600 -5.710700 -15.947300 -3.403585 -3.403710 0.920466 29.359970 16.820562 -0.353699 2.132551 -8.532025 27.000596 3.511494 -21.751696 -30.442275 -2.437400 -9.723100 28.084700 3.198657 0.240076 5.685807 2.909500 0.516704 0.858700 -4.405051 0.017061 -12.155508 -6.274910 -0.379128 -18.205185 11.719954 -0.668012 6.000945 1.668100 -0.205700 3.215400 -1.664757 -9.904431 2.051787 -90.478765 26.418117 24.784865 22.795849 -21.605114 -5.573080 2.287424 -0.251276 18.056255 -12.725082 -24.446713 6.374500 -7.125000 0.000000 0.000000 -26.293800 6.416500 26.196800 0.296163 9.667083 3.125840 81.472042 -22.993910 35.064801 -20.718932 23.052313 -5.745563 1.280090 -0.014984 13.625137 -8.935084 -50.493411 7.902200 7.125000 0.000000 0.000000 59.177000 -74.132200 -44.210500 
9.271290 17.777625 47.070143 -177.695748 -0.791080 -178.686688 -0.546463 3.457836 1.388669 -15.141753 -27.206495 -1.685451 -1.990911 8.852384 25.560918 -3.022149 11.156411 -9.601282 0.832200 -5.819700 -16.262000 -3.415650 -3.373738 0.884348 29.668301 17.778708 -0.220686 2.197847 -8.514413 26.841748 3.964087 -23.149807 -30.688480 -2.187800 -9.246800 26.570400 3.405060 0.241971 5.668267 2.973020 0.540235 0.927514 -4.523087 0.012619 -12.127986 -5.939571 -0.342480 -17.779785 11.363873 -0.676865 5.489439 1.482800 -0.256500 2.964600 -1.680268 -9.907510 2.047043 -90.705948 26.442731 23.669594 22.557125 -21.380907 -5.518340 2.335677 -0.059164 18.735634 -10.095623 -26.816331 5.719800 -7.125000 0.000000 0.000000 -24.622300 4.065100 25.327200 0.298433 9.641661 3.103088 82.191682 -23.123209 33.747203 -20.568358 22.895453 -5.692120 1.281375 0.024401 14.313593 -5.387498 -50.821241 5.163100 7.125000 0.000000 0.000000 62.995300 -73.016500 -46.311600 
9.268939 17.793381 47.062735 -178.102422 -0.655035 -178.794072 -0.572167 3.467281 1.389589 -15.699280 -27.222043 -1.504469 -1.970284 8.929197 25.779324 -3.102699 11.414012 -10.025916 0.843000 -5.856500 -16.368700 -3.410678 -3.432385 0.946540 29.192507 17.064793 -0.040791 2.204621 -8.404511 26.678363 3.756991 -22.402347 -30.455750 -2.154800 -9.181300 26.364100 3.098574 0.323499 5.624812 2.690548 0.602950 1.083324 -4.413797 0.090806 -12.100814 -6.662460 -0.494481 -17.991316 12.135999 -0.846729 5.573177 1.853500 -0.318100 3.060700 -1.674517 -9.943625 2.036044 -90.968266 26.372826 22.541751 22.232429 -21.023749 -5.377976 2.356952 -0.009542 19.567687 -8.964128 -27.499028 5.314800 -7.125000 0.000000 0.000000 -23.953200 3.347900 24.831300 0.347322 9.597978 3.075786 82.960544 -23.207835 32.259298 -20.271743 22.587106 -5.605906 1.275153 0.082585 14.848960 -0.896010 -51.536151 1.663300 7.125000 0.000000 0.000000 68.412100 -71.733200 -49.640300 
9.267998 17.861575 47.074728 -177.869327 -0.601769 -178.491144 -0.582358 3.415294 1.323073 -15.238222 -27.088507 -1.846684 -1.987078 8.903288 25.647578 -3.246626 11.680410 -9.676129 0.808200 -5.737300 -16.024000 -3.300741 -3.398711 1.019708 29.173695 15.352098 -0.450118 2.183747 -8.426624 26.901102 1.009464 -17.511484 -34.683078 -3.784900 -11.868500 35.268500 3.266025 0.387496 5.629773 2.899728 0.710894 0.773911 -4.533498 0.111569 -12.155633 -6.528140 -0.526492 -17.729445 11.866106 -0.910903 5.267352 1.729700 -0.381000 2.909600 -1.726280 -9.938867 2.034909 -91.245610 26.323393 21.373201 21.839463 -20.587976 -5.207675 2.373922 0.046829 20.185697 -7.747178 -28.070969 4.822500 -7.125000 0.000000 0.000000 -23.250600 2.721000 24.240300 0.355570 9.586309 3.083604 83.562278 -23.294979 31.388293 -19.903995 22.174712 -5.487510 1.273337 0.114406 14.674107 0.559393 -52.075575 0.514200 7.125000 0.000000 0.000000 70.969500 -71.420000 -51.589800 
9.262825 17.845114 47.085781 -177.726441 -0.544081 -178.382767 -0.574094 3.392844 1.314238 -15.024503 -27.000276 -2.008681 -2.004481 8.862235 25.517171 -3.305376 11.770761 -9.399118 0.771600 -5.609000 -15.653900 -3.311561 -3.366848 0.967607 29.317534 16.685105 -0.308068 2.199083 -8.448269 26.844777 1.371372 -17.951112 -33.850604 -3.931100 -12.068100 35.973300 3.422560 0.427465 5.678341 2.991041 0.782743 0.637889 -4.631775 0.125384 -12.191620 -6.146311 -0.492574 -17.239345 11.270200 -0.917703 4.688615 1.458800 -0.443500 2.620500 -1.756550 -9.942330 2.032645 -91.462879 26.314379 20.311236 21.580589 -20.308340 -5.104865 2.380162 0.128320 20.522204 -6.284686 -28.766735 4.194300 -7.125000 0.000000 0.000000 -22.405300 1.947000 23.528100 0.363330 9.567472 3.070160 84.005156 -23.328728 30.810026 -19.445911 21.625889 -5.304765 1.288450 0.113832 14.885972 0.643446 -51.895866 0.456800 7.125000 0.000000 0.000000 70.533200 -71.340000 -51.095100 
9.256828 17.822187 47.090954 -177.715778 -0.479914 -178.386102 -0.577584 3.385609 1.311627 -15.033313 -27.054565 -2.038503 -1.989919 8.881570 25.576883 -3.216234 11.578133 -9.456358 0.746800 -5.520100 -15.398200 -3.319133 -3.361838 0.947310 29.330369 17.949094 0.017736 2.214817 -8.409185 26.666902 1.542431 -17.817122 -32.941847 -4.252200 -12.488600 37.483100 3.504857 0.435570 5.697967 2.940154 0.800513 0.673501 -4.689097 0.130349 -12.202664 -5.863453 -0.456461 -17.009493 10.860440 -0.905584 4.235485 1.273800 -0.481600 2.425000 -1.782283 -9.961242 2.023302 -91.713300 26.108225 18.919335 21.339164 -20.069444 -5.026186 2.371683 0.266998 21.037554 -3.784211 -29.905446 3.027600 -7.125000 0.000000 0.000000 -20.971800 0.631800 22.294400 0.394676 9.564719 3.027997 84.732292 -23.203289 28.813521 -18.717946 20.707499 -4.958838 1.325813 0.051924 17.332675 0.699850 -50.468814 0.431000 7.125000 0.000000 0.000000 66.671600 -70.819400 -47.011200 
9.250362 17.804198 47.093305 -177.734914 -0.427873 -178.447612 -0.561735 3.380488 1.312786 -15.154727 -27.138504 -2.051373 -1.941734 8.959186 25.816184 -3.110312 11.380026 -9.699321 0.698300 -5.341700 -14.885700 -3.387304 -3.363438 0.895095 29.413884 18.191226 -0.078134 2.286158 -8.340289 26.352936 3.461789 -21.686808 -30.618763 -2.746800 -10.273300 29.866500 3.602630 0.423616 5.767399 2.804653 0.791753 0.718968 -4.755653 0.124790 -12.247273 -6.021249 -0.455917 -17.133369 11.165670 -0.904949 4.235250 1.397800 -0.474100 2.456200 -1.808423 -9.987112 2.006861 -91.988234 25.790664 17.148441 21.019884 -19.771401 -4.906241 2.440600 0.156863 22.049783 -5.569093 -29.982550 3.999200 -7.125000 0.000000 0.000000 -21.964800 0.688100 23.505800 0.444198 9.566218 2.985070 85.878972 -22.906726 25.469419 -18.367634 20.271040 -4.772203 1.335126 0.013017 19.495568 0.992549 -49.695066 0.204800 7.125000 0.000000 0.000000 64.908700 -70.413100 -44.991400 
9.244953 17.789030 47.099302 -177.830839 -0.404034 -178.523388 -0.554280 3.373285 1.304396 -15.358893 -27.181292 -2.047743 -1.899488 9.037252 26.045960 -3.074118 11.339021 -9.926043 0.614300 -5.016100 -13.954400 -3.391024 -3.379794 0.905056 29.308601 18.074030 -0.034790 2.325647 -8.267015 26.137359 3.942376 -22.718077 -30.157175 -2.386100 -9.627800 27.779800 3.463575 0.461759 5.804395 2.798502 0.829572 0.825194 -4.696444 0.163832 -12.274367 -6.069538 -0.488882 -17.027995 11.176287 -0.960713 4.030763 1.406900 -0.517500 2.379400 -1.849228 -10.014583 1.981865 -92.244188 25.447869 15.676469 20.716999 -19.459810 -4.774675 2.471661 0.099073 23.282363 -5.922775 -29.932926 4.192100 -7.125000 0.000000 0.000000 -22.168700 0.744700 23.739100 0.478922 9.571192 2.937364 86.840508 -22.599640 22.284861 -18.006475 19.818172 -4.575031 1.347748 -0.035307 21.416666 0.594539 -48.658377 0.512900 7.125000 0.000000 0.000000 62.001500 -70.090200 -42.135600 
